<svg width="23" height="78" viewBox="0 0 23 78" fill="none" xmlns="http://www.w3.org/2000/svg">
<path d="M9.27851 0.00837708C8.7308 -0.0625381 8.2293 0.323982 8.15838 0.871696L7.00274 9.79719C6.93183 10.3449 7.31835 10.8464 7.86606 10.9173C8.41377 10.9882 8.91527 10.6017 8.98619 10.054L10.0134 2.12022L17.9472 3.14746C18.4949 3.21838 18.9964 2.83186 19.0673 2.28415C19.1382 1.73643 18.7517 1.23493 18.204 1.16402L9.27851 0.00837708ZM20.6501 32.5034L19.6757 32.2786L20.6501 32.5034ZM1.15011 54.5034L2.13894 54.6525L1.15011 54.5034ZM20.6501 32.5034L21.6245 32.7283C22.411 29.3201 22.025 25.5785 21.0623 21.9414C20.0975 18.2961 18.5346 14.6865 16.893 11.5074C15.2496 8.32482 13.5151 5.5502 12.1924 3.57206C11.5305 2.58225 10.9706 1.79001 10.5749 1.24375C10.3771 0.970581 10.2202 0.758804 10.1122 0.614464C10.0582 0.54229 10.0163 0.486961 9.98767 0.449242C9.97334 0.430382 9.9623 0.415924 9.95468 0.40596C9.95086 0.400978 9.9479 0.397118 9.94581 0.394394C9.94477 0.393036 9.94394 0.391953 9.94333 0.391159C9.94302 0.39077 9.94273 0.390388 9.94258 0.39019C9.94234 0.389877 9.94216 0.389641 9.15011 1.0001C8.35806 1.61056 8.35798 1.61047 8.35797 1.61044C8.35803 1.61053 8.35807 1.61057 8.35821 1.61075C8.35847 1.6111 8.35896 1.61173 8.35966 1.61264C8.36107 1.61447 8.36334 1.61743 8.36645 1.62151C8.37269 1.62965 8.38232 1.64227 8.39524 1.65926C8.42106 1.69324 8.45998 1.74472 8.51104 1.81293C8.61315 1.94936 8.76377 2.15269 8.95515 2.41692C9.33796 2.94546 9.88348 3.71712 10.5298 4.68375C11.8235 6.6185 13.5162 9.32693 15.1159 12.425C16.7174 15.5265 18.2136 18.9952 19.1289 22.4531C20.0464 25.9193 20.3617 29.3059 19.6757 32.2786L20.6501 32.5034ZM9.15011 78.0066C9.97752 77.445 9.97759 77.4451 9.97763 77.4452C9.97759 77.4451 9.97759 77.4451 9.97752 77.445C9.97738 77.4448 9.97709 77.4444 9.97666 77.4437C9.97581 77.4425 9.97439 77.4404 9.97241 77.4374C9.96846 77.4316 9.96229 77.4224 9.95397 77.41C9.93734 77.3851 9.91212 77.3473 9.87895 77.2971C9.8126 77.1966 9.71445 77.0464 9.58942 76.851C9.33932 76.4601 8.98199 75.8887 8.55691 75.1722C7.70604 73.7381 6.58736 71.7289 5.51453 69.4277C3.34188 64.7675 1.46411 59.1295 2.13894 54.6525L1.15011 54.5034L0.161276 54.3544C-0.609019 59.4648 1.51321 65.5783 3.70184 70.2728C4.80966 72.649 5.96194 74.718 6.83686 76.1927C7.27468 76.9306 7.64396 77.5213 7.90475 77.9289C8.03516 78.1327 8.13852 78.2909 8.20982 78.3989C8.24547 78.4529 8.27312 78.4944 8.29214 78.5228C8.30165 78.537 8.309 78.5479 8.31412 78.5555C8.31668 78.5593 8.31868 78.5623 8.32011 78.5644C8.32083 78.5654 8.3214 78.5663 8.32183 78.5669C8.32205 78.5672 8.32226 78.5676 8.32237 78.5677C8.32255 78.568 8.32269 78.5682 9.15011 78.0066ZM1.15011 54.5034L2.13894 54.6525C2.9169 49.4912 6.71251 47.0045 11.0997 44.2918C15.3688 41.652 20.2253 38.7914 21.6245 32.7283L20.6501 32.5034L19.6757 32.2786C18.4934 37.4021 14.4555 39.8653 10.0478 42.5907C5.75812 45.2432 1.09448 48.1632 0.161276 54.3544L1.15011 54.5034Z" fill="#66A681"/>
</svg>
